<?xml version="1.0" standalone="no"?>
<!DOCTYPE svg PUBLIC "-//W3C//DTD SVG 20010904//EN"
 "http://www.w3.org/TR/2001/REC-SVG-20010904/DTD/svg10.dtd">
<svg version="1.0" xmlns="http://www.w3.org/2000/svg"
 width="192.000000pt" height="192.000000pt" viewBox="0 0 192.000000 192.000000"
 preserveAspectRatio="xMidYMid meet">
<metadata>
Created by potrace 1.14, written by Peter Selinger 2001-2017
</metadata>
<g transform="translate(0.000000,192.000000) scale(0.100000,-0.100000)"
fill="#000000" stroke="none">
<path d="M168 1690 l-38 -5 25 -53 c13 -29 25 -56 26 -60 2 -6 58 -131 89
-197 5 -11 39 -87 75 -170 85 -192 96 -216 134 -298 17 -37 31 -74 31 -80 0
-7 4 -17 9 -22 5 -6 39 -80 76 -165 147 -339 159 -359 233 -391 51 -22 175
-27 245 -9 70 18 106 66 189 255 38 88 83 188 99 223 16 35 29 65 29 68 0 2
15 37 34 78 19 41 49 107 66 147 34 80 45 105 83 189 14 30 60 134 102 230 42
96 83 189 90 205 27 59 32 57 -120 57 -77 -1 -156 -1 -176 -1 l-37 -1 -82
-207 c-46 -115 -89 -221 -96 -238 -22 -51 -155 -379 -158 -390 -2 -5 -7 -19
-11 -30 -94 -232 -111 -266 -128 -259 -16 6 -21 17 -122 269 -42 105 -83 204
-90 220 -7 17 -22 55 -34 85 -23 58 -30 74 -54 130 -8 19 -50 122 -92 228 -42
105 -80 192 -84 193 -34 3 -285 3 -313 -1z"/>
</g>
</svg>
